<svg width="27" height="25" viewBox="0 0 27 25" fill="none" xmlns="http://www.w3.org/2000/svg">
<path d="M13.5 6.00859C9.63428 6.00859 6.48928 8.92063 6.48928 12.5C6.48928 16.0794 9.63428 18.9889 13.5 18.9889C17.3657 18.9889 20.508 16.0768 20.508 12.5C20.5107 8.92063 17.3657 6.00859 13.5 6.00859ZM13.5 16.5142C11.1085 16.5142 9.16471 14.7144 9.16471 12.5C9.16471 10.2856 11.1085 8.48584 13.5 8.48584C15.8915 8.48584 17.8353 10.2856 17.8353 12.5C17.8353 14.7144 15.8915 16.5142 13.5 16.5142ZM19.2303 0H7.76967C3.48625 0 0 3.22801 0 7.19414V17.8059C0 21.772 3.48625 25 7.76967 25H19.2303C23.5138 25 27 21.772 27 17.8059V7.19414C27 3.22801 23.5165 0 19.2303 0ZM24.3273 17.8059C24.3273 20.407 22.0395 22.5228 19.2303 22.5228H7.76967C4.96046 22.5228 2.67543 20.407 2.67543 17.8059V7.19414C2.67543 4.59302 4.96046 2.47725 7.76967 2.47725H19.2303C22.0395 2.47725 24.3246 4.59302 24.3246 7.19414V17.8059H24.3273ZM20.6063 4.13296C19.5962 4.13296 18.7717 4.89383 18.7717 5.83165C18.7717 6.76694 19.5934 7.53033 20.6063 7.53033C21.6164 7.53033 22.4408 6.76946 22.4408 5.83165C22.4408 4.89383 21.6164 4.13296 20.6063 4.13296Z" fill="#C0C0C0"/>
</svg>
