<svg width="33" height="27" viewBox="0 0 33 27" fill="none" xmlns="http://www.w3.org/2000/svg">
<path d="M29.0192 1L1.29808 10.0116L1 10.8837V11.4651L9.04808 14.9535L24.8462 5.94186H25.4423V6.23256L13.8173 17.8605L23.9519 26H26.0385L32 1.5814L31.7019 1H29.0192Z" fill="#C0C0C0" stroke="black"/>
<path d="M11.7307 24.2557L9.34619 14.9535L24.8462 5.94189L13.7167 17.757L17.8542 21.1624L13.8173 24.2557L12.3269 24.5464L11.7307 24.2557Z" fill="#3D3C3C"/>
<path d="M12.3269 24.5464L11.7307 24.2557L9.34619 14.9535L24.8462 5.94189L13.7167 17.757M12.3269 24.5464L12.923 22.8023L13.7167 20.186L14.1012 18.5248M12.3269 24.5464L13.8173 24.2557L17.8542 21.1624L13.7167 17.757M13.7167 17.757L14.1153 18.4418L14.1012 18.5248M13.7167 17.757L14.1012 18.5248" stroke="black"/>
</svg>
