<svg width="39" height="27" viewBox="0 0 39 27" fill="none" xmlns="http://www.w3.org/2000/svg">
<path d="M1 5.32692V1.96154H2.68182H5.20455H6.88636L7.72727 2.44231L8.14773 2.92308L11.9318 11.0962L12.3523 12.0577L13.1932 13.0192H14.0341H14.4545L14.875 12.5385L15.2955 11.5769V5.80769V4.84615L14.4545 3.40385L14.0341 2.92308L13.6136 2.44231H13.1932L12.7727 1.96154L13.6136 1.48077L15.2955 1H16.5568H17.8182H19.5H20.3409L21.6023 1.48077L22.4432 1.96154L22.8636 2.44231V12.5385L23.7045 13.0192H24.125L24.9659 12.5385L25.8068 11.5769L27.4886 8.21154L29.5909 3.40385L30.0114 2.44231L30.4318 1.96154H38V5.80769L35.8977 9.17308L33.7955 12.5385L32.9545 13.9808L32.5341 14.9423V15.9038L33.375 16.8654L34.2159 17.8269L35.0568 18.7885L35.4773 19.2692L36.3182 20.2308L37.5795 21.6731L38 22.6346V23.5962V24.5577V25.0385V26H37.5795H37.1591H35.8977H34.6364H33.7955H32.1136H30.8523H30.4318L29.5909 25.5192L28.3295 24.5577L27.4886 23.1154L26.2273 21.6731L24.9659 20.7115H24.125H23.7045L22.8636 22.1538V23.1154V24.0769L22.4432 25.0385V25.5192L22.0227 26H21.1818H19.5H17.8182L16.5568 25.5192L13.1932 24.0769L9.82955 21.1923L6.46591 16.8654L3.94318 12.0577C3.24242 10.6154 1.67273 7.25 1 5.32692Z" fill="#C0C0C0" stroke="black"/>
</svg>
